<svg xmlns="http://www.w3.org/2000/svg" version="1.1" xmlns:xlink="http://www.w3.org/1999/xlink" xmlns:svgjs="http://svgjs.dev/svgjs" width="1000" height="1125" viewBox="0 0 1000 1125"><g transform="matrix(1,0,0,1,0,0)"><svg viewBox="0 0 320 360" data-background-color="#fefefe" preserveAspectRatio="xMidYMid meet" height="1125" width="1000" xmlns="http://www.w3.org/2000/svg" xmlns:xlink="http://www.w3.org/1999/xlink"><g id="tight-bounds" transform="matrix(1,0,0,1,0,0)"><svg viewBox="0 0 320 360" height="360" width="320"><g><svg></svg></g><g><svg viewBox="0 0 320 360" height="360" width="320"><g><path d="M320 187.111c0-45.764-20.238-86.866-52.203-114.908-28.043-31.964-69.145-52.203-114.908-52.203-84.302 0-152.889 68.587-152.889 152.889 0 45.753 20.231 86.848 52.185 114.891 28.043 31.975 69.152 52.22 114.926 52.22 0.299 0 0.59-0.021 0.889-0.021 0.299 0 0.59 0.021 0.889 0.021 83.456 0 151.111-67.655 151.111-151.111 0-0.299-0.021-0.59-0.021-0.889 0-0.299 0.021-0.59 0.021-0.889zM59.833 263.097c-15.093-21.255-24.071-47.143-24.256-75.097 0.48-72.928 59.492-131.943 132.423-132.423 27.954 0.185 53.845 9.163 75.097 24.256 24.366 23.627 39.57 56.64 39.57 93.056 0 71.559-58.219 129.778-129.778 129.778-36.416 0-69.429-15.204-93.056-39.57zM3.556 172.889c0-82.343 66.99-149.333 149.333-149.333 35.051 0 67.292 12.167 92.8 32.462-22.98-13.824-49.863-21.796-78.578-21.796-84.302 0-152.889 68.587-152.889 152.889 0 28.708 7.968 55.584 21.785 78.56-20.288-25.5-32.452-57.739-32.451-92.782zM167.111 318.667c-35.84 0-68.363-14.418-92.107-37.743 21.952 15.89 48.864 25.298 77.885 25.298 73.522 0 133.333-59.812 133.333-133.333 0-29.02-9.408-55.932-25.298-77.885 23.324 23.744 37.742 56.267 37.743 92.107 0 72.54-59.015 131.556-131.556 131.556z" fill="#ff0000" fill-rule="nonzero" stroke="none" stroke-width="1" stroke-linecap="butt" stroke-linejoin="miter" stroke-miterlimit="10" stroke-dasharray="" stroke-dashoffset="0" font-family="none" font-weight="none" font-size="none" text-anchor="none" style="mix-blend-mode: normal" data-fill-palette-color="tertiary"></path></g><g transform="matrix(1,0,0,1,64,134.92111194590532)"><svg viewBox="0 0 192 90.15777610818934" height="90.15777610818934" width="192"><g><svg viewBox="0 0 192 90.15777610818934" height="90.15777610818934" width="192"><g><svg viewBox="0 0 192 90.15777610818934" height="90.15777610818934" width="192"><g><svg viewBox="0 0 192 90.15777610818934" height="90.15777610818934" width="192"><g><svg viewBox="0 0 192 90.15777610818934" height="90.15777610818934" width="192"><g><svg viewBox="0 0 192 90.15777610818934" height="90.15777610818934" width="192"><g transform="matrix(1,0,0,1,0,0)"><svg width="192" viewBox="-28.15 -31.25 66.55 31.25" height="90.15777610818934" data-palette-color="#ff0000"><path d="M6.35-2.4L5.95-0.15-28.15-2.4 6.35-2.4ZM7.2-7.25L6.8-5-14.4-7.25 7.2-7.25ZM12.3-26.45L12.15-24.2-9.05-26.45 12.3-26.45ZM12.65-31.25L12.5-29-8.65-31.25 12.65-31.25ZM14.25-14.75L-5.45-16.85 16.15-16.85 14.25-14.75ZM9.9-9.95L-9.8-12.05 11.8-12.05 9.9-9.95ZM18.55-19.55L-1.15-21.65 20.45-21.65 18.55-19.55ZM34.5-8L33.1 0 7.5 0 8.6-6.25 23.65-22.95 23.55-23.25 13.6-23.25 14.15-31.25 38.4-31.25 37.3-25 22.35-8.3 22.4-8 34.5-8Z" opacity="1" transform="matrix(1,0,0,1,0,0)" fill="#ff0000" class="undefined-text-0" data-fill-palette-color="primary" id="text-0"></path></svg></g></svg></g></svg></g></svg></g></svg></g></svg></g></svg></g></svg></g><defs></defs></svg><rect width="320" height="360" fill="none" stroke="none" visibility="hidden"></rect></g></svg></g></svg>